<svg id="visual" viewBox="0 0 960 300" width="960" height="300" xmlns="http://www.w3.org/2000/svg" xmlns:xlink="http://www.w3.org/1999/xlink" version="1.1"><rect x="0" y="0" width="960" height="300" fill="#232322"></rect><path d="M0 234L20 231.8C40 229.7 80 225.3 120 217.8C160 210.3 200 199.7 240 196.7C280 193.7 320 198.3 360 206.2C400 214 440 225 480 225.7C520 226.3 560 216.7 600 208.3C640 200 680 193 720 196.2C760 199.3 800 212.7 840 221C880 229.3 920 232.7 940 234.3L960 236L960 301L940 301C920 301 880 301 840 301C800 301 760 301 720 301C680 301 640 301 600 301C560 301 520 301 480 301C440 301 400 301 360 301C320 301 280 301 240 301C200 301 160 301 120 301C80 301 40 301 20 301L0 301Z" fill="#e07823"></path><path d="M0 263L20 261.8C40 260.7 80 258.3 120 255.2C160 252 200 248 240 243C280 238 320 232 360 234C400 236 440 246 480 246C520 246 560 236 600 229.3C640 222.7 680 219.3 720 222.5C760 225.7 800 235.3 840 235C880 234.7 920 224.3 940 219.2L960 214L960 301L940 301C920 301 880 301 840 301C800 301 760 301 720 301C680 301 640 301 600 301C560 301 520 301 480 301C440 301 400 301 360 301C320 301 280 301 240 301C200 301 160 301 120 301C80 301 40 301 20 301L0 301Z" fill="#d4551c"></path><path d="M0 252L20 256C40 260 80 268 120 269.2C160 270.3 200 264.7 240 262.2C280 259.7 320 260.3 360 259.2C400 258 440 255 480 252.8C520 250.7 560 249.3 600 253.2C640 257 680 266 720 267.8C760 269.7 800 264.3 840 259.7C880 255 920 251 940 249L960 247L960 301L940 301C920 301 880 301 840 301C800 301 760 301 720 301C680 301 640 301 600 301C560 301 520 301 480 301C440 301 400 301 360 301C320 301 280 301 240 301C200 301 160 301 120 301C80 301 40 301 20 301L0 301Z" fill="#c52a1b"></path></svg>