<svg id="visual" viewBox="0 0 960 540" width="960" height="540" xmlns="http://www.w3.org/2000/svg" xmlns:xlink="http://www.w3.org/1999/xlink" version="1.1"><rect x="0" y="0" width="960" height="540" fill="#232322"></rect><path d="M0 41L22.8 39.7C45.7 38.3 91.3 35.7 137 35.5C182.7 35.3 228.3 37.7 274 34.3C319.7 31 365.3 22 411.2 19.3C457 16.7 503 20.3 548.8 24.8C594.7 29.3 640.3 34.7 686 34.2C731.7 33.7 777.3 27.3 823 25.8C868.7 24.3 914.3 27.7 937.2 29.3L960 31L960 0L937.2 0C914.3 0 868.7 0 823 0C777.3 0 731.7 0 686 0C640.3 0 594.7 0 548.8 0C503 0 457 0 411.2 0C365.3 0 319.7 0 274 0C228.3 0 182.7 0 137 0C91.3 0 45.7 0 22.8 0L0 0Z" fill="#c52a1b" stroke-linecap="round" stroke-linejoin="miter"></path></svg>