<svg id="visual" viewBox="0 0 960 540" width="960" height="540" xmlns="http://www.w3.org/2000/svg" xmlns:xlink="http://www.w3.org/1999/xlink" version="1.1">
<rect x="0" y="0" width="960" height="540" fill="#232322"></rect><path d="M0 361L20 368C40 375 80 389 120 394C160 399 200 395 240 385.7C280 376.3 320 361.7 360 351.8C400 342 440 337 480 338.3C520 339.7 560 347.3 600 348.7C640 350 680 345 720 344.8C760 344.7 800 349.3 840 358.2C880 367 920 380 940 386.5L960 393L960 541L940 541C920 541 880 541 840 541C800 541 760 541 720 541C680 541 640 541 600 541C560 541 520 541 480 541C440 541 400 541 360 541C320 541 280 541 240 541C200 541 160 541 120 541C80 541 40 541 20 541L0 541Z" fill="#e07823"></path><path d="M0 407L20 401.2C40 395.3 80 383.7 120 387.2C160 390.7 200 409.3 240 409C280 408.7 320 389.3 360 380.5C400 371.7 440 373.3 480 370.3C520 367.3 560 359.7 600 359C640 358.3 680 364.7 720 370C760 375.3 800 379.7 840 377.7C880 375.7 920 367.3 940 363.2L960 359L960 541L940 541C920 541 880 541 840 541C800 541 760 541 720 541C680 541 640 541 600 541C560 541 520 541 480 541C440 541 400 541 360 541C320 541 280 541 240 541C200 541 160 541 120 541C80 541 40 541 20 541L0 541Z" fill="#db6a1f"></path><path d="M0 437L20 438.2C40 439.3 80 441.7 120 437.2C160 432.7 200 421.3 240 417.2C280 413 320 416 360 413.7C400 411.3 440 403.7 480 403C520 402.3 560 408.7 600 408.2C640 407.7 680 400.3 720 396.8C760 393.3 800 393.7 840 396.5C880 399.3 920 404.7 940 407.3L960 410L960 541L940 541C920 541 880 541 840 541C800 541 760 541 720 541C680 541 640 541 600 541C560 541 520 541 480 541C440 541 400 541 360 541C320 541 280 541 240 541C200 541 160 541 120 541C80 541 40 541 20 541L0 541Z" fill="#d75c1d"></path><path d="M0 448L20 446.5C40 445 80 442 120 444.8C160 447.7 200 456.3 240 459.2C280 462 320 459 360 453.7C400 448.3 440 440.7 480 442.7C520 444.7 560 456.3 600 457.3C640 458.3 680 448.7 720 441.2C760 433.7 800 428.3 840 429.7C880 431 920 439 940 443L960 447L960 541L940 541C920 541 880 541 840 541C800 541 760 541 720 541C680 541 640 541 600 541C560 541 520 541 480 541C440 541 400 541 360 541C320 541 280 541 240 541C200 541 160 541 120 541C80 541 40 541 20 541L0 541Z" fill="#d14d1b"></path><path d="M0 460L20 458.3C40 456.7 80 453.3 120 454.3C160 455.3 200 460.7 240 461.3C280 462 320 458 360 463C400 468 440 482 480 486.2C520 490.3 560 484.7 600 482.3C640 480 680 481 720 482.7C760 484.3 800 486.7 840 482C880 477.3 920 465.7 940 459.8L960 454L960 541L940 541C920 541 880 541 840 541C800 541 760 541 720 541C680 541 640 541 600 541C560 541 520 541 480 541C440 541 400 541 360 541C320 541 280 541 240 541C200 541 160 541 120 541C80 541 40 541 20 541L0 541Z" fill="#cb3d1b"></path><path d="M0 494L20 492.7C40 491.3 80 488.7 120 490.8C160 493 200 500 240 499.3C280 498.7 320 490.3 360 486.7C400 483 440 484 480 487.5C520 491 560 497 600 498.8C640 500.7 680 498.3 720 500.8C760 503.3 800 510.7 840 510.3C880 510 920 502 940 498L960 494L960 541L940 541C920 541 880 541 840 541C800 541 760 541 720 541C680 541 640 541 600 541C560 541 520 541 480 541C440 541 400 541 360 541C320 541 280 541 240 541C200 541 160 541 120 541C80 541 40 541 20 541L0 541Z" fill="#c52a1b"></path>
</svg>